<svg height="78.5" viewBox="0 0 78.5 78.5" width="78.5" xmlns="http://www.w3.org/2000/svg"><path d="m75.663 25.648a1.527 1.527 0 0 0 -.856-2.149 39.017 39.017 0 1 0 -71.469 31.327 4.586 4.586 0 0 0 3.413 7.652 4.617 4.617 0 0 0 1.016-.114 39.384 39.384 0 0 0 9.775 9.212 4.588 4.588 0 0 0 7.593 4.7l.587-.587a39.046 39.046 0 0 0 49.941-50.041zm-72.604 13.352a35.932 35.932 0 0 1 42.736-35.291l-5.348 5.347c-.6.053-1.153.12-1.447.12a29.826 29.826 0 0 0 -28.531 38.51l-4.786 4.786a35.736 35.736 0 0 1 -2.624-13.472zm30.552-18.409.042.676a6.772 6.772 0 0 1 -1.97 5.206l-18.723 18.722a26.769 26.769 0 0 1 24.247-32.895l-.736.736a9.834 9.834 0 0 0 -2.86 7.555zm-27.941 38.382a1.529 1.529 0 0 1 0-2.163l28.176-28.174a9.834 9.834 0 0 0 2.86-7.558l-.042-.676a6.773 6.773 0 0 1 1.97-5.206l10.61-10.61a1.524 1.524 0 0 0 .123-.141l.291.227q1.435.447 2.816 1.008l-10.863 10.865a1.529 1.529 0 0 0 2.163 2.163l11.391-11.392a1.53 1.53 0 0 0 .228-.294q1.434.739 2.792 1.6l-.856.856-11.392 11.392a1.529 1.529 0 0 0 2.163 2.163l12.635-12.633a36.161 36.161 0 0 1 10.946 13.654l-4.381 1.152a43.66 43.66 0 0 0 -19.732 11.337l-6.248 6.247a5.936 5.936 0 0 0 -1.72 4.637 2.879 2.879 0 0 1 -.836 2.249l-12.729 12.724a26.961 26.961 0 0 1 -9.07-8.233l21.207-21.206a6.78 6.78 0 0 1 5.206-1.97l.676.042a9.83 9.83 0 0 0 7.558-2.86l12.205-12.206a1.529 1.529 0 0 0 -2.163-2.167l-12.205 12.21a6.776 6.776 0 0 1 -5.206 1.97l-.676-.042a9.83 9.83 0 0 0 -7.558 2.86l-28.176 28.175a1.531 1.531 0 0 1 -2.163 0zm4.729 1.76 4.371-4.371a30.05 30.05 0 0 0 9.024 8.279l-4.438 4.439a36.237 36.237 0 0 1 -8.956-8.346zm12.575 13.38a1.529 1.529 0 1 1 -2.163-2.163l20.112-20.111a5.936 5.936 0 0 0 1.724-4.639 2.879 2.879 0 0 1 .836-2.249l6.247-6.247a40.6 40.6 0 0 1 18.353-10.54l1.142-.3zm16.026.828a35.8 35.8 0 0 1 -10.852-1.676l5.017-5.017a29.852 29.852 0 0 0 32.869-16.657 1.529 1.529 0 0 0 -2.771-1.3 26.755 26.755 0 0 1 -27.426 15.286l37.428-37.428a35.943 35.943 0 0 1 -34.265 46.792z" fill="#595959" stroke="#fff" stroke-width=".5" transform="translate(.25 .25)"/></svg>