<svg height="278.369" viewBox="0 0 300.447 278.369" width="300.447" xmlns="http://www.w3.org/2000/svg"><ellipse cx="149" cy="268.869" fill="#d8d8dd" rx="149" ry="9.5"/><g fill="#595959"><path d="m146 159.369h6v4h-6z"/><path d="m157 159.369h4v4h-4z"/><path d="m167 159.369h4v4h-4z"/><path d="m176 159.369h5v4h-5z"/><path d="m186 159.369h5v4h-5z"/><path d="m196 159.369h5v4h-5z"/><path d="m206 159.369h6v4h-6z"/><path d="m217 159.369h4v4h-4z"/><path d="m227 159.369h4v4h-4z"/><path d="m236 159.369h5v4h-5z"/><path d="m246 159.369h5v4h-5z"/></g><path d="m701.768 503.512a59.829 59.829 0 0 1 -119.659 0z" fill="#d8d8dd" transform="translate(-439.244 -342.096)"/><path d="m809.607 340.449-38.058-113.443a59.788 59.788 0 0 1 75.751 37.694c.4 1.2.769 2.41 1.093 3.619a59.832 59.832 0 0 1 -38.786 72.13z" fill="#3f3d56" opacity=".2" transform="translate(-549.975 -178.651)"/><ellipse cx="261.5" cy="163.369" fill="#595959" rx="7.5" ry="7"/><path d="m680.686 541.012a2.077 2.077 0 0 0 0 4.155h35.732a2.077 2.077 0 0 0 0-4.155z" fill="#595959" transform="translate(-495.65 -364.015)"/><path d="m558.826 563.881-7.44.275-26.8-57.642 6.782-3.153z" fill="#d8d8dd" transform="translate(-306.482 -294.232)"/><path d="m368 563.881 7.44.275 26.8-57.642-6.782-3.153z" fill="#d8d8dd" transform="translate(-214.956 -294.232)"/><path d="m172 236.369h62v4h-62z" fill="#d8d8dd"/><path d="m772.581 226.294a1.87 1.87 0 0 0 -1.788 2.416l1.576 5.166a1.87 1.87 0 1 0 3.577-1.091l-1.576-5.166a1.873 1.873 0 0 0 -1.789-1.325z" fill="#595959" transform="translate(-549.486 -180.057)"/><path d="m573.479 506.012a1.87 1.87 0 0 0 0 3.739h5.4a1.87 1.87 0 1 0 0-3.739z" fill="#595959" transform="translate(-433.107 -343.557)"/><path d="m643.862 473.012h-22.437c-.141 0-.278 0-.415.017a5.815 5.815 0 0 0 -.013 11.6c.141.013.283.017.428.017h22.436a5.817 5.817 0 0 0 0-11.634z" fill="#ff6584" transform="translate(-458.825 -324.268)"/><path d="m623.257 484.184c3.823-.49 6.831-5.314 6.831-11.172h-.831c0 5.73-2.983 10.387-6.648 10.387v.465z" opacity=".2" transform="translate(-462.917 -324.268)"/><path d="m643.609 484.23v-.83c3.666 0 6.648-4.66 6.648-10.387h.831c0 6.187-3.355 11.217-7.479 11.217z" opacity=".2" transform="translate(-475.192 -324.268)"/><path d="m664.609 484.23v-.83c3.665 0 6.648-4.66 6.648-10.387h.831c0 6.187-3.355 11.217-7.479 11.217z" opacity=".2" transform="translate(-487.467 -324.268)"/><path d="m741.861 473.012h-22.436c-.141 0-.278 0-.416.017a5.815 5.815 0 0 0 -.013 11.6c.141.013.283.017.428.017h22.436a5.817 5.817 0 1 0 0-11.634z" fill="#ff6584" transform="translate(-516.108 -324.268)"/><path d="m721.257 484.184c3.822-.49 6.831-5.314 6.831-11.172h-.831c0 5.73-2.983 10.387-6.648 10.387v.465z" opacity=".2" transform="translate(-520.2 -324.268)"/><path d="m741.609 484.23v-.83c3.665 0 6.648-4.66 6.648-10.387h.831c0 6.187-3.355 11.217-7.479 11.217z" opacity=".2" transform="translate(-532.475 -324.268)"/><path d="m762.609 484.23v-.83c3.665 0 6.648-4.66 6.648-10.387h.831c0 6.187-3.355 11.217-7.479 11.217z" opacity=".2" transform="translate(-544.75 -324.268)"/><path d="m667.223 337.717c-2.94-1.589-6.576.144-8.041 2.956-1.782 3.42-.3 7.532 1.773 10.455 2.16 3.038 5.091 5.545 6.532 9.056a15.137 15.137 0 0 1 -5.905 18.641c-1.352.855-.1 3.014 1.258 2.152a17.7 17.7 0 0 0 6.314-23.094 24.7 24.7 0 0 0 -3.244-4.585c-2.163-2.56-4.885-5.381-5.021-8.943a5.636 5.636 0 0 1 .1-1.379 4.85 4.85 0 0 1 .288-.925 4.51 4.51 0 0 1 1.31-1.634 3.985 3.985 0 0 1 1.783-.807 2.673 2.673 0 0 1 1.6.259c1.412.763 2.672-1.389 1.258-2.153z" fill="#e6e6e6" transform="translate(-483.829 -244.832)"/><path d="m757.947 374.371a7.271 7.271 0 0 0 -7.274 1.691 4.418 4.418 0 0 0 -1.182 3.857 7.692 7.692 0 0 0 2.226 3.934c2.025 2.116 4.858 3.484 6.556 5.913a7.421 7.421 0 0 1 1.371 3.518 6.647 6.647 0 0 1 -.608 3.326 12.227 12.227 0 0 1 -6.432 5.452 1.254 1.254 0 0 0 -.447 1.705 1.28 1.28 0 0 0 1.706.447c4.879-2.074 9.394-6.72 8.048-12.428-.708-3-2.878-5.122-5.214-6.964a29.221 29.221 0 0 1 -3.279-2.8 4.351 4.351 0 0 1 -1.5-3.193 1.766 1.766 0 0 1 .56-1.051 4.833 4.833 0 0 1 1.235-.821 4.645 4.645 0 0 1 3.571-.185 1.258 1.258 0 0 0 1.533-.871 1.272 1.272 0 0 0 -.87-1.533z" fill="#e6e6e6" transform="translate(-537.042 -266.407)"/><path d="m711.448 288.074a4.277 4.277 0 0 0 -2.657-1.023 4.693 4.693 0 0 0 -2.588.837 8.908 8.908 0 0 0 -3.429 5.137c-1.26 4.825.384 10.026 2.667 14.275 1.154 2.148 2.5 4.187 3.66 6.331a28.1 28.1 0 0 1 2.56 6.5 31.4 31.4 0 0 1 .309 14.18c-1 4.666-3.1 9.287-6.667 12.507a1.246 1.246 0 0 0 1.763 1.763 24.391 24.391 0 0 0 6.568-10.808 33.139 33.139 0 0 0 1.21-14.083 32.272 32.272 0 0 0 -1.6-6.906 38.134 38.134 0 0 0 -3.171-6.473c-2.343-3.962-4.837-7.968-5.177-12.685a9.536 9.536 0 0 1 1.558-6.6c-.079.1.063-.074.064-.075q.13-.156.271-.3a5.515 5.515 0 0 1 .573-.533c-.043.034-.154.108.047-.031.1-.069.2-.136.307-.2.085-.05.173-.095.26-.141q.078-.04.157-.075-.182.078.021 0c.1-.031.58-.135.313-.1a2.512 2.512 0 0 1 .269-.017c.038 0 .374.017.21 0-.192-.021.152.034.154.035a2.464 2.464 0 0 1 .316.1c-.259-.1.425.281.267.158a1.288 1.288 0 0 0 1.763 0 1.255 1.255 0 0 0 0-1.763z" fill="#e6e6e6" transform="translate(-509.52 -215.57)"/><path d="m217.785 514.24-9.4 2.493-17.26-79.781 19.37-1.726z" fill="#ffb9b9" transform="translate(-111.571 -254.405)"/><path d="m126.393 516.175-9.613 1.453-8.449-81.189 19.443.4z" fill="#ffb9b9" transform="translate(-63.175 -255.115)"/><path d="m347.742 364.373.888 16.57a4.254 4.254 0 0 1 -4.63 4.465 4.254 4.254 0 0 1 -3.853-3.865l-1.607-18.32-12.658-42.959.384-27.617 14.959.767z" fill="#ffb9b9" transform="translate(-289.473 -218.841)"/><path d="m361.193 498.384q-11.24-3.9-26.082-1.534c1.4-16.623 2.216-32.06 1.534-44.494h51.014z" fill="#2f2e41" transform="translate(-294.869 -312.194)"/><path d="m416.29 498.541c-7.723 4.085-18.895 6.041-31.836 6.9l-16.11-51.4 39.507-.767z" fill="#2f2e41" transform="translate(-314.295 -312.734)"/><path d="m487.749 735.913-27.792 1.029c-3.56.132-3.748-2.925-3.076-6.424l3.29-9.4c7.408 7.258 8.105 7.663 11.281-2.661l9.692 7.655 7.174 1.23a4.316 4.316 0 0 1 3.586 4.26 4.316 4.316 0 0 1 -4.156 4.306z" fill="#2f2e41" transform="translate(-365.867 -467.737)"/><path d="m386.439 735.913-27.792 1.029c-3.56.132-3.748-2.925-3.076-6.424l3.29-9.4c7.408 7.258 8.105 7.663 11.281-2.661l9.692 7.655 7.174 1.23a4.316 4.316 0 0 1 3.586 4.26 4.316 4.316 0 0 1 -4.156 4.306z" fill="#2f2e41" transform="translate(-306.65 -467.737)"/><circle cx="86.269" cy="18.188" fill="#ffb9b9" r="14.959"/><path d="m164 75.119-17.644-5.37 11.888-17.649 13.425 5.754z" fill="#ffb9b9" transform="translate(-85.399 -30.464)"/><path d="m385.237 310.918c-18.138 4.078-38.272 2.46-55.617-2.3 4.154-23.161 2.148-48.039-1.918-68.275-3.183-15.839 5.213-29.129 19.178-35.672a38.891 38.891 0 0 1 9.3-2.094 18.1 18.1 0 0 1 19.438 16.259z" fill="#fc801a" transform="translate(-290.146 -166.153)"/><path d="m97.158 166.827-12.658-1.535 3.836-19.945h8.822z" fill="#fc801a" transform="translate(-49.245 -84.966)"/><path d="m418.916 135.565-2.292-1.018a3.917 3.917 0 0 0 -5.377 2.594l-3.194 5.77-7.954-1.259.278-12.215a17.076 17.076 0 0 1 20.615-14.013l.217.049a24.709 24.709 0 0 1 11.556 6.723l4.9 5.576a1.927 1.927 0 0 1 -1.232 3.187l-6.706.74z" fill="#2f2e41" transform="translate(-332.856 -115.008)"/><path d="m483.308 397.5-8.59 7.534a.623.623 0 1 1 -.822-.937l8.59-7.534-1.644-1.874-8.59 7.534a.623.623 0 1 1 -.822-.937l8.59-7.534-1.644-1.874-8.59 7.534a.623.623 0 1 1 -.822-.937l8.59-7.534-2.054-2.341-12.139 10.647a6.291 6.291 0 0 0 -1.338 7.805l-36.648 32.148 3.288 3.748 36.624-32.124a6.091 6.091 0 0 0 7.789-.2l12.286-10.777z" fill="#e6e6e6" transform="translate(-347.631 -274.927)"/><path d="m433.6 364.373.888 16.57a4.254 4.254 0 0 1 -4.633 4.464 4.254 4.254 0 0 1 -3.855-3.864l-1.607-18.32-12.658-42.959.384-27.617 14.959.767z" fill="#ffb9b9" transform="translate(-339.657 -218.841)"/><path d="m427.148 258.781c-4.552-4.366-10.559-4.526-17.26-2.685v-20.614a9.3 9.3 0 0 1 9.3-9.3 8.52 8.52 0 0 1 8.518 8.721z" fill="#fc801a" transform="translate(-338.578 -179.989)"/></svg>