<svg height="408" viewBox="0 0 412 408" width="412" xmlns="http://www.w3.org/2000/svg" xmlns:xlink="http://www.w3.org/1999/xlink"><clipPath id="a"><path d="m0 0h412v408h-412z"/></clipPath><clipPath id="b"><path d="m171.806 37.111c140.853 93.7 301.378 335.464 358.544 540s-10.677 294.377-151.529 200.678-301.378-335.464-358.544-540 10.676-294.378 151.529-200.678z" transform="matrix(.65605903 .75470958 -.75470958 .65605903 615.013 0)"/></clipPath><g clip-path="url(#a)"><g fill="#fff"><path d="m0 0h412v408h-412z" transform="translate(4 4)"/><g clip-path="url(#b)" transform="matrix(.259 .966 -.966 .259 542.466 -413.522)"><g opacity=".5" transform="matrix(.5 .8660254 -.8660254 .5 512.359 378.122)"><path d="m131.04573059 130.69152832c-.00015259 0-.00022888 0-.00036621 0-.78466797-.00006103-1.76408386-.22737122-2.91104126-.67562866l-57.15441895-22.33690643c-5.165802-2.01887513-11.90909194-7.83358765-15.03190994-12.96198273l-53.9177463-88.54512978c-1.36478192-2.24125433-1.84990919-4.05634522-1.33100009-4.97987258.25800001-.45918179.79141819-.69199997 1.58543634-.69199997.78445459 0 1.76387262.2273091 2.91101837.67563635l57.15437985 22.33689058c5.165802 2.01889038 11.90907287 7.83361816 15.03191375 12.9620018l53.9177475 88.54512405c1.36480713 2.24132538 1.84992981 4.05649567 1.33096314 4.98001862-.25798035.45906066-.79127503.69184875-1.5849762.69184875z"/><path d="m131.04571533 130.19152832c.59959412 0 .9861908-.1469574 1.14906311-.43681335.32546997-.57925415.14906311-2.05903626-1.32209778-4.47501374l-53.91773986-88.54512787c-1.48338318-2.43605423-3.84703827-5.11080169-6.65553284-7.5315113-2.80188751-2.41503525-5.68965149-4.27056313-8.13132477-5.22481728l-57.1543808-22.33689117c-1.07358193-.41958177-2.01725459-.6413455-2.72901821-.6413455-.59987271 0-.98661816.14700007-1.14952731.43692731-.32543629.57920003-.14901811 2.0589273 1.32214546 4.47490931l53.91774726 88.54512548c1.48337937 2.43603516 3.84701538 5.11078644 6.65552521 7.5315094 2.80189133 2.41501618 5.6896553 4.27056122 8.13132858 5.22480011l57.15441132 22.33690644c1.07342529.41950988 2.01712036.64129638 2.72920227.64134216zm-.00039673 1.00001526c-.82382202-.00007629-1.86062622-.22831726-3.09299469-.70996094l-57.15441894-22.3368988c-5.26091004-2.0560379-12.10065842-7.95140076-15.2769661-13.1676178l-53.91774559-88.54513073c-2.43226331-3.99431753-2.01149887-6.43193184.68148494-6.43193184.82382202 0 1.86064076.22830908 3.09302402.70995014l57.15438318 22.33689087c5.26090622 2.05605507 12.10063553 7.95140076 15.27696609 13.16763687l53.91773987 88.54512406c2.43225098 3.99430084 2.01148987 6.43216705-.68147278 6.43193817z" fill="#707070"/></g><g opacity=".5" transform="matrix(.5 .8660254 -.8660254 .5 444.073 503.049)"><path d="m95.81941986 72.84204865c-.00014496 0-.00019836 0-.00034332 0-.78466797-.00006104-1.76407623-.22737122-2.91104889-.67562104l-57.15438843-22.33691025c-5.165802-2.01889419-11.9090805-7.83362579-15.03190803-12.96199798l-18.69147993-30.69561529c-1.36477333-2.24127984-1.8498933-4.05637312-1.33098661-4.97989309.25799995-.45918667.7914133-.69201335 1.58542668-.69201335.78446651 0 1.76386643.22731998 2.91101313.67563995l57.15438557 22.33690703c5.165802 2.01889229 11.9090805 7.83359909 15.03190612 12.96198464l18.69148255 30.69562912c1.36481476 2.24134826 1.84992981 4.05649566 1.3309555 4.9800415-.25796508.45906067-.79129791.69184876-1.58501434.69184876z"/><path d="m95.81941223 72.34204865c.59960938 0 .98621369-.14697266 1.14907837-.43682099.3254776-.57926941.14909363-2.05904388-1.32206726-4.47501373l-18.69147491-30.69564438c-1.48339081-2.43603897-3.84703064-5.11078453-6.65554047-7.53150559-2.80187988-2.41502571-5.68965149-4.27055931-8.13131714-5.22481346l-57.15439939-22.33690619c-1.07356024-.41957331-2.01724005-.64134663-2.7290001-.64134663-.59986674 0-.98662674.14700001-1.14953339.43693333-.32543999.57919991-.14901334 2.05893338 1.32214678 4.47491992l18.69147992 30.69562817c1.48338699 2.43603897 3.84702682 5.11078643 6.65553283 7.53150558 2.80187989 2.41502762 5.68964005 4.27057266 8.13132096 5.22482681l57.15439605 22.33690262c1.07338715.41950989 2.01709748.64128113 2.72918702.64133454zm-.00038147 1.00000762c-.82382202-.00006866-1.86061859-.228302-3.09300995-.70993804l-57.15438461-22.33690644c-5.26091766-2.05606842-12.10063744-7.95141601-15.27695847-13.16764068l-18.6914798-30.69562674c-2.43225771-3.99432063-2.01149159-6.43194015.68149173-6.43194015.82382179 0 1.86062885.22830358 3.09301496.70994009l57.15438843 22.33690589c5.26090622 2.05605507 12.10063553 7.95140076 15.27695846 13.16762734l18.69148255 30.69564056c2.4322586 3.99430847 2.01148224 6.43216706-.6815033 6.43193817z" fill="#707070"/></g><g opacity=".5" transform="matrix(.5 .8660254 -.8660254 .5 452.85 365.808)"><path d="m122.41885376 116.52430725c-.00014496 0-.00019074 0-.00033569 0-.78466797-.00006866-1.76408387-.22738647-2.91105652-.67563629l-57.15439606-22.3368988c-5.165802-2.01888276-11.90908432-7.83359528-15.03190231-12.96198273l-45.29091501-74.37789869c-1.3647666-2.24126673-1.84989992-4.05636669-1.33098329-4.97988332.25800002-.45918333.79141665-.69199997 1.58541668-.69199997.78446674 0 1.76388335.22731668 2.9110167.67563337l57.1543994 22.33691716c5.16578674 2.01886559 11.9090805 7.83358193 15.03191375 12.96196747l45.29090119 74.37791443c1.36482239 2.24131775 1.84993744 4.05646515 1.33097076 4.98001862-.25797272.45906829-.79129791.69184875-1.5850296.69184875z"/><path d="m122.41886139 116.02430725c.599617 0 .98622131-.14696503 1.149086-.43683624.32546997-.57924652.14907074-2.05901337-1.32209778-4.47498322l-45.29090118-74.37791443c-1.48338318-2.43605041-3.84703064-5.11079979-6.65553284-7.53151512-2.80188751-2.41501808-5.68963623-4.27055168-8.13131714-5.22480011l-57.15440035-22.3369174c-1.07356644-.41956663-2.01723313-.64133334-2.72901654-.64133334-.59986663 0-.98661661.14700008-1.1495167.4369334-.32543326.57919991-.14901662 2.05891669 1.32215011 4.47490013l45.29091501 74.3779006c1.48336792 2.43605041 3.84700012 5.11080169 6.65550232 7.53151702 2.80189896 2.41503144 5.68966675 4.27056885 8.1313324 5.22481537l57.15440368 22.33689881c1.07341004.41950226 2.01711274.64128113 2.7292099.64133453zm-.00038147 1.00000763c-.82382202-.00006866-1.86062622-.228302-3.09301758-.70993805l-57.15439606-22.33690643c-5.26091766-2.05604553-12.10065078-7.95141602-15.27695083-13.16763306l-45.29091716-74.37789678c-2.43225521-3.99431515-2.01148888-6.43193768.68149114-6.43193768.82382106 0 1.86062383.22830216 3.09300899.70993791l57.15439844 22.33691704c5.26091767 2.05604935 12.10063172 7.95138359 15.27696991 13.16761589l45.29090119 74.37791825c2.43226623 3.99430084 2.01148986 6.43214416-.68148804 6.43192291z" fill="#707070"/></g><g opacity=".5" transform="matrix(.5 .8660254 -.8660254 .5 513.182 255.435)"><path d="m122.41885376 116.52430725c-.00014496 0-.00019074 0-.00033569 0-.78466797-.00006866-1.76408387-.22738647-2.91105652-.67563629l-57.15439606-22.3368988c-5.165802-2.01888276-11.90908432-7.83359528-15.03190231-12.96198273l-45.29091501-74.37789869c-1.3647666-2.24126673-1.84989992-4.05636669-1.33098329-4.97988332.25800002-.45918333.79141665-.69199997 1.58541668-.69199997.78446674 0 1.76388335.22731668 2.9110167.67563337l57.1543994 22.33691716c5.16578674 2.01886559 11.9090805 7.83358193 15.03191375 12.96196747l45.29090119 74.37791443c1.36482239 2.24131775 1.84993744 4.05646515 1.33097076 4.98001862-.25797272.45906829-.79129791.69184875-1.5850296.69184875z"/><path d="m122.41886139 116.02430725c.599617 0 .98622131-.14696503 1.149086-.43683624.32546997-.57924652.14907074-2.05901337-1.32209778-4.47498322l-45.29090118-74.37791443c-1.48338318-2.43605041-3.84703064-5.11079979-6.65553284-7.53151512-2.80188751-2.41501808-5.68963623-4.27055168-8.13131714-5.22480011l-57.15440035-22.3369174c-1.07356644-.41956663-2.01723313-.64133334-2.72901654-.64133334-.59986663 0-.98661661.14700008-1.1495167.4369334-.32543326.57919991-.14901662 2.05891669 1.32215011 4.47490013l45.29091501 74.3779006c1.48336792 2.43605041 3.84700012 5.11080169 6.65550232 7.53151702 2.80189896 2.41503144 5.68966675 4.27056885 8.1313324 5.22481537l57.15440368 22.33689881c1.07341004.41950226 2.01711274.64128113 2.7292099.64133453zm-.00038147 1.00000763c-.82382202-.00006866-1.86062622-.228302-3.09301758-.70993805l-57.15439606-22.33690643c-5.26091766-2.05604553-12.10065078-7.95141602-15.27695083-13.16763306l-45.29091716-74.37789678c-2.43225521-3.99431515-2.01148888-6.43193768.68149114-6.43193768.82382106 0 1.86062383.22830216 3.09300899.70993791l57.15439844 22.33691704c5.26091767 2.05604935 12.10063172 7.95138359 15.27696991 13.16761589l45.29090119 74.37791825c2.43226623 3.99430084 2.01148986 6.43214416-.68148804 6.43192291z" fill="#707070"/></g><g opacity=".5" transform="matrix(.5 .8660254 -.8660254 .5 601.543 457.329)"><path d="m122.41885376 116.52430725c-.00014496 0-.00019074 0-.00033569 0-.78466797-.00006866-1.76408387-.22738647-2.91105652-.67563629l-57.15439606-22.3368988c-5.165802-2.01888276-11.90908432-7.83359528-15.03190231-12.96198273l-45.29091501-74.37789869c-1.3647666-2.24126673-1.84989992-4.05636669-1.33098329-4.97988332.25800002-.45918333.79141665-.69199997 1.58541668-.69199997.78446674 0 1.76388335.22731668 2.9110167.67563337l57.1543994 22.33691716c5.16578674 2.01886559 11.9090805 7.83358193 15.03191375 12.96196747l45.29090119 74.37791443c1.36482239 2.24131775 1.84993744 4.05646515 1.33097076 4.98001862-.25797272.45906829-.79129791.69184875-1.5850296.69184875z"/><path d="m122.41886139 116.02430725c.599617 0 .98622131-.14696503 1.149086-.43683624.32546997-.57924652.14907074-2.05901337-1.32209778-4.47498322l-45.29090118-74.37791443c-1.48338318-2.43605041-3.84703064-5.11079979-6.65553284-7.53151512-2.80188751-2.41501808-5.68963623-4.27055168-8.13131714-5.22480011l-57.15440035-22.3369174c-1.07356644-.41956663-2.01723313-.64133334-2.72901654-.64133334-.59986663 0-.98661661.14700008-1.1495167.4369334-.32543326.57919991-.14901662 2.05891669 1.32215011 4.47490013l45.29091501 74.3779006c1.48336792 2.43605041 3.84700012 5.11080169 6.65550232 7.53151702 2.80189896 2.41503144 5.68966675 4.27056885 8.1313324 5.22481537l57.15440368 22.33689881c1.07341004.41950226 2.01711274.64128113 2.7292099.64133453zm-.00038147 1.00000763c-.82382202-.00006866-1.86062622-.228302-3.09301758-.70993805l-57.15439606-22.33690643c-5.26091766-2.05604553-12.10065078-7.95141602-15.27695083-13.16763306l-45.29091716-74.37789678c-2.43225521-3.99431515-2.01148888-6.43193768.68149114-6.43193768.82382106 0 1.86062383.22830216 3.09300899.70993791l57.15439844 22.33691704c5.26091767 2.05604935 12.10063172 7.95138359 15.27696991 13.16761589l45.29090119 74.37791825c2.43226623 3.99430084 2.01148986 6.43214416-.68148804 6.43192291z" fill="#707070"/></g><g opacity=".5" transform="matrix(.5 .8660254 -.8660254 .5 572.69 267.749)"><path d="m211.72270203 151.42573547c-.00013733 0-.00027466 0-.00042725 0-.78465271-.00009155-1.76409912-.22740173-2.91107178-.67567443l-146.45814514-57.23827363c-5.165802-2.01889038-11.9090805-7.83361053-15.03188705-12.96200561l-45.29091668-74.37791395c-1.36477787-2.24125004-1.84991676-4.05633354-1.33100009-4.97986126.25800001-.45916665.79141664-.69199997 1.58541655-.69199997.78447223 0 1.76388908.22733336 2.91102767.67563885l146.45814085 57.2383064c5.165802 2.01891709 11.90908814 7.83363724 15.03192139 12.9620018l45.29090881 74.37789154c1.36483765 2.24134827 1.84994507 4.05651856 1.3309784 4.98005677-.25798035.45904541-.79122925.69183349-1.58494568.69183349z"/><path d="m211.72267151 150.92573547c.59957886 0 .98619079-.14697265 1.14904785-.43681335.32548523-.57925415.14906311-2.059021-1.32209778-4.47505188l-45.29092407-74.37789154c-1.48338318-2.43602753-3.84703064-5.11077881-6.65553284-7.53150177-2.80187988-2.4149971-5.68966675-4.27055359-8.13133239-5.22483063l-146.4581337-57.23830628c-1.07358337-.41955567-2.01725006-.64133334-2.72902799-.64133334-.59986102 0-.98661101.14699995-1.14952767.43694436-.32544446.57919443-.14899999 2.05891669 1.32216656 4.47488892l45.29091669 74.37791681c1.4833908 2.43602753 3.84702682 5.11077881 6.6554985 7.53150177 2.80189133 2.41502381 5.68966675 4.27058411 8.13133621 5.22483063l146.4581337 57.23827362c1.07345581.41950989 2.01716614.64128113 2.72927856.64137268zm-.00042725.99998474c-.82382202-.00007629-1.86065674-.22831726-3.09304809-.70996093l-146.45813752-57.23828125c-5.26091384-2.05605316-12.10063934-7.95141602-15.2769432-13.16764069l-45.29091692-74.37791395c-2.43226797-3.99430704-2.01150477-6.43191492.68147921-6.43191492.82382226 0 1.86063552.22830556 3.09302068.70994257l146.45813227 57.23830641c5.26092529 2.05608368 12.10064697 7.95141601 15.27697754 13.16764068l45.29092407 74.37789154c2.43223572 3.99432373 2.01150513 6.43218994-.68148804 6.43193054z" fill="#707070"/></g><g opacity=".5" transform="matrix(.5 .8660254 -.8660254 .5 526.786 472.912)"><path d="m304.41729736 247.02882385c-.00009155 0-.00012207 0-.00021362 0-.78469849-.00007629-1.76409912-.22738647-2.91107178-.67564392l-191.70534515-74.92169189c-5.16577149-2.01889038-11.90903473-7.83361817-15.03192139-12.9619751l-92.73850012-152.29760885c-1.36476934-2.24126911-1.8498847-4.05638433-1.33096164-4.97988439.25800002-.45919233.79142314-.69200003 1.58542317-.69200003.7844615 0 1.76384616.22730768 2.91100001.67561543l191.70533991 74.92173123c5.16581726 2.01888275 11.90911866 7.83361817 15.03193665 12.96195984l92.73852539 152.29757691c1.36480713 2.24134826 1.84991455 4.05650329 1.33093262 4.9800415-.25796509.45909119-.79135132.69187927-1.58514405.69187927z"/><path d="m304.41744995 246.52882385c.59957886 0 .98617554-.14695739 1.14907837-.43684387.32543945-.57922363.14904785-2.05903625-1.32208252-4.47503662l-92.73854065-152.2975769c-1.48338318-2.43604279-3.84700012-5.11077118-6.65554809-7.53150177-2.80187989-2.41500092-5.68965149-4.27053834-8.13130188-5.22480774l-191.7053485-74.92172957c-1.07357692-.4195385-2.01726913-.64130771-2.72899985-.64130771-.59988475 0-.98661542.14699995-1.14953852.43692315-.32542312.57919216-.14900004 2.058923 1.32215381 4.47492289l92.73850155 152.29757643c1.48338318 2.43603515 3.84703827 5.11080932 6.65554047 7.53149414 2.80187988 2.41503906 5.68965149 4.27058411 8.13130188 5.22485351l191.70535278 74.9216919c1.07339477.41949463 2.01712036.64126587 2.72921753.64134216zm-.00042724.99998474c-.82382203-.00006103-1.86062623-.228302-3.09301758-.70994567l-191.70533753-74.9216919c-5.26092529-2.05607605-12.10061645-7.95141602-15.27696228-13.1676178l-92.73849857-152.29761028c-2.43224829-3.99431372-2.01148501-6.43193287.68149412-6.43193287.82382059 0 1.86061907.22829965 3.09300566.70993269l191.70534706 74.92173296c5.26087952 2.0560379 12.10064697 7.9513855 15.27696228 13.16761017l92.73852539 152.2975769c2.43225098 3.99432373 2.01147461 6.43217469-.68151855 6.4319458z" fill="#707070"/></g><g opacity=".5" transform="matrix(.5 .8660254 -.8660254 .5 589.985 58.376)"><path d="m189.25556946 174.13269043c-.00013733 0-.00022888 0-.00038147 0-.78465271-.00007629-1.76406861-.22740173-2.91105652-.67564392l-98.82944489-38.6242218c-5.16582489-2.01890564-11.90909576-7.8336258-15.03192138-12.96200562l-70.45252753-115.69892406c-1.36474996-2.24127484-1.84987495-4.05637479-1.33097493-4.97987485.25799995-.45919997.79142499-.69202498 1.58542502-.69202498.78447485 0 1.76387477.22732499 2.91102481.67565003l98.82944917 38.62422431c5.16580201 2.01887512 11.90907288 7.83359909 15.0318985 12.9619751l70.45252228 115.69897079c1.36480713 2.24133301 1.84992981 4.05647278 1.33094788 4.98002624-.25794983.45907593-.79124451.69184876-1.58496094.69184876z"/><path d="m189.25553894 173.63269043c.59959412 0 .98620606-.14697266 1.14907837-.43681335.32546997-.57925416.14906311-2.05903626-1.32208252-4.47500611l-70.45252228-115.69897461c-1.48337555-2.43605041-3.84702301-5.11080169-6.65552521-7.53152466-2.80187225-2.41502761-5.68965148-4.27054977-8.13132476-5.22480011l-98.82944966-38.62422633c-1.07360005-.41957509-2.01727509-.64135003-2.72902512-.64135003-.5998751 0-.98662508.14699996-1.14952505.43692494-.32545.57922506-.14902496 2.05894994 1.32212508 4.47492504l70.45252514 115.69892597c1.48339843 2.43605041 3.84705353 5.1108017 6.65554809 7.53151703 2.80187989 2.41503906 5.68965149 4.2705841 8.13132477 5.22483825l98.82948303 38.62422181c1.073349.41952514 2.01707459.64126587 2.72917176.64134216zm-.00038147 1c-.82382202-.00006104-1.86062622-.228302-3.09301758-.70994568l-98.82945251-38.6242218c-5.2609253-2.05607605-12.10064697-7.95140076-15.27697754-13.16765595l-70.45252216-115.69892168c-2.43224239-3.99432826-2.01147944-6.43194005.68150508-6.43194005.82382226 0 1.8606329.22830421 3.09301997.70993993l98.82944822 38.6242261c5.26092529 2.05604934 12.1006546 7.95140075 15.27695465 13.16762542l70.45251465 115.69897843c2.43225098 3.99427795 2.01150513 6.43214416-.68147278 6.43191528z" fill="#707070"/></g><g opacity=".5" transform="matrix(.5 .8660254 -.8660254 .5 496.832 148.006)"><path d="m165.4413147 164.82562256c-.00019837 0-.00024414 0-.00044251 0-.78466797-.0000763-1.76408386-.22737122-2.91107177-.67564392l-75.01512146-29.31716919c-5.16584778-2.01893616-11.90913392-7.83367157-15.0318985-12.96199799l-70.45251799-115.69893503c-1.36478263-2.24126077-1.84991306-4.05636954-1.33102179-4.97989118.25800002-.45917398.79141307-.69200006 1.58543492-.69200006.78445649 0 1.76386928.22732606 2.91102171.67565217l75.01513338 29.31719482c5.165802 2.01887131 11.9090805 7.83356476 15.03189087 12.96193695l70.45251465 115.69897843c1.3648529 2.24131775 1.84996032 4.05647278 1.33100891 4.98002624-.25796509.45903016-.79129029.69184876-1.58493042.69184876z"/><path d="m165.44122314 164.32562256c.59962464 0 .98623658-.14698792 1.14907837-.43682861.32548523-.5792389.14906311-2.059021-1.32209777-4.47500611l-70.45252991-115.69897842c-1.48336792-2.43604279-3.84702301-5.11075974-6.65549469-7.53147507-2.80189514-2.4150238-5.68965912-4.27054405-8.13134766-5.22480583l-75.01513433-29.31719554c-1.07360864-.4195652-2.01728249-.64134776-2.72902155-.64134776-.59986973 0-.98660875.14699995-1.14952183.43693471-.3254348.57919574-.14902174 2.05891299 1.32215214 4.47491288l70.45252228 115.69893837c1.48336792 2.43604278 3.84700012 5.11077881 6.65551757 7.53151703 2.80187226 2.41500854 5.68963623 4.27053833 8.1313324 5.224823l75.01512909 29.31718444c1.07344055.41949463 2.01713562.64125061 2.72923279.64132691zm-.00038147 1c-.82383728-.00006104-1.86064147-.228302-3.09303283-.70994568l-75.01513672-29.31716919c-5.26091004-2.05609131-12.10064697-7.95139313-15.27695465-13.16765594l-70.45252025-115.6989317c-2.43226236-3.99431991-2.01150662-6.4319262.68147504-6.4319262.82382154 0 1.86064053.22830857 3.09302521.70994784l75.01513243 29.31719607c5.26093292 2.05604171 12.10064697 7.95137024 15.27695465 13.16758728l70.45251464 115.69898224c2.4322815 3.99429321 2.01152039 6.43214416-.68145752 6.43191528z" fill="#707070"/></g><g opacity=".5" transform="matrix(.5 .8660254 -.8660254 .5 413.296 300.831)"><path d="m139.56072998 122.32400513c-.00015259 0-.00022888 0-.00038147 0-.78466797-.00006867-1.76408386-.22737885-2.91104126-.67563629l-75.01515198-29.31718445c-5.165802-2.01890564-11.90907287-7.83363343-15.03190994-12.96199799l-44.57199931-73.19730711c-1.36476362-2.2412548-1.84989086-4.0563457-1.33098179-4.97987294.25801819-.45918179.79141825-.69201815 1.5854364-.69201815.78445459 0 1.76387286.22732729 2.91100002.67563641l75.0151453 29.31719994c5.16584015 2.01890946 11.90911102 7.83363724 15.03189087 12.96198273l44.57200622 73.19730759c1.36480713 2.24132538 1.84994507 4.05647278 1.33096314 4.98003387-.25796509.45906067-.79127503.69185639-1.5849762.69185639z"/><path d="m139.56065369 121.82400513c.59962463 0 .98622131-.14698029 1.14910888-.43683625.32548523-.57926178.14907837-2.05904388-1.32206726-4.4750061l-44.57201385-73.19729614c-1.48336029-2.43603897-3.84700012-5.11077881-6.65550232-7.53150177-2.80187988-2.41501999-5.68963623-4.27057839-8.13131714-5.22481919l-75.01516151-29.31719934c-1.07355977-.41955996-2.01723981-.6413399-2.72901989-.6413399-.59985995 0-.98661994.14699995-1.14952003.43691992-.32543993.57922006-.14901996 2.05893994 1.32214009 4.47490025l44.57200003 73.19731951c1.48339844 2.43604278 3.84703827 5.11077881 6.65554047 7.53150177 2.80187988 2.41501617 5.68964004 4.27057648 8.13132095 5.22481537l75.01513672 29.3171997c1.07342529.41952515 2.01712036.64128113 2.72918701.64134217zm-.00035096 1c-.82382202-.00006867-1.86061096-.228302-3.09300231-.70993805l-75.01514054-29.31719971c-5.26091766-2.05606079-12.10063934-7.95140076-15.27695846-13.1676178l-44.57200087-73.19732332c-2.43225765-3.99430513-2.01149874-6.431923.68148268-6.431923.8238213 0 1.86063146.22830506 3.09301758.70994314l75.0151596 29.3172009c5.26091767 2.05605889 12.10063935 7.95139885 15.27693939 13.16761971l44.57200623 73.19729996c2.43225098 3.99430084 2.01148987 6.43216705-.6815033 6.43193817z" fill="#707070"/></g><g opacity=".5" transform="matrix(.5 .8660254 -.8660254 .5 393.845 473.755)"><path d="m380.98428345 205.88078308c-.00009156 0-.00015259 0-.00027466 0-.78469849-.00010681-1.76409912-.22740173-2.91107178-.67565918l-325.06561279-127.04119873c-5.165802-2.01889801-11.90909958-7.83359527-15.03190231-12.96195221l-35.94514871-59.03009653c-1.3648001-2.24125004-1.84990008-4.05635023-1.33100009-4.97985017.25800002-.45919997.79139996-.69204998 1.58544993-.69204998.78445006 0 1.76384998.22734999 2.91100002.67565l325.06559896 127.04120111c5.165802 2.01890564 11.90908814 7.83360291 15.03189087 12.96194458l35.94515991 59.03010559c1.36483765 2.24134827 1.84994507 4.0565033 1.33099366 4.98004151-.25796509.45910644-.79129029.69186401-1.58508301.69186401z"/><path d="m2.28433228.99996948c-.59960938 0-.98620606.14700318-1.14904786.43685913-.32550048.57929993-.14916992 2.05905152 1.32199097 4.47499085l35.94519043 59.03010559c1.48339844 2.43605041 3.84701538 5.11079407 6.65551758 7.53149414 2.80187988 2.41500854 5.68963623 4.27055359 8.13134765 5.22480774l325.06558228 127.04119873c1.07354736.41960144 2.01727295.64135742 2.72906494.64135742.59985352 0 .9866333-.14700317 1.14953613-.43695068.32540894-.57920838.14901734-2.05889893-1.32220459-4.47489929l-35.94512939-59.0301056c-1.48339844-2.43605041-3.8470459-5.11079406-6.6555481-7.53150939-2.8019104-2.41499329-5.68966674-4.27053833-8.13134765-5.22479249l-325.06561279-127.04119873c-1.07333375-.41949462-2.01705933-.64125061-2.7291565-.64135742zm.00036621-.99996948c.8237915.00006104 1.8605957.22828674 3.09298706.70993042l325.06558227 127.04119873c5.26095581 2.05604553 12.10064697 7.95140076 15.27700806 13.16760254l35.94515991 59.03009033c2.4322815 3.99433899 2.01150513 6.4319458-.68148804 6.4319458-.82382202 0-1.86062622-.228302-3.09301757-.70994568l-325.0656128-127.04119873c-5.26095581-2.05604553-12.10064697-7.95140075-15.27694702-13.16760254l-35.94519043-59.03009033c-2.43225097-3.99429321-2.01147461-6.43215942.68151856-6.43193054z" fill="#707070"/></g></g><g transform="translate(171 21.228)"><path d="m49.99999237 153.60440063c-2.28180313-3.54904174-13.48873901-21.13520813-24.56488037-41.2321701-7.24857903-13.15202332-13.02305985-24.78887939-17.16307926-34.58730316-5.15714026-12.20569611-7.77202034-21.55391693-7.77202034-27.78495789 0-6.68265915 1.30869996-13.1651802 3.88973999-19.26746177 2.49312019-5.89435959 6.06231975-11.18813897 10.60848045-15.73429871 4.54613972-4.54614067 9.83991909-8.11534023 15.73429966-10.60846043 6.10227966-2.58104002 12.58478165-3.88974005 19.26745987-3.88974005s13.16518021 1.30870003 19.26747894 3.88974005c5.89436341 2.4931202 11.18814087 6.06231976 15.73429871 10.60846043 4.54616547 4.54615974 8.11536407 9.83993912 10.60845947 15.73429871 2.58106232 6.10228157 3.88976288 12.58480262 3.88976288 19.26746177 0 6.23104096-2.61488342 15.57926178-7.77201843 27.78495789-4.14002228 9.79842377-9.91452027 21.43527984-17.16307831 34.58730316-11.07616425 20.09696197-22.28310013 37.68312836-24.56490326 41.2321701z"/><path d="m49.99999237.99998474c-6.61539841 0-13.03237915 1.29542542-19.0727005 3.8502655-5.83477783 2.46788025-11.07514191 6.00109864-15.57553864 10.50149537-4.50040435 4.50039672-8.03362274 9.74076843-10.50150299 15.57552337-2.55484008 6.04032135-3.85025787 12.45729828-3.85025787 19.0727005 0 6.16339875 2.60128021 15.44532013 7.73155975 27.58787537 4.13284302 9.78176117 9.89910126 21.40202331 17.13864136 34.53797912 10.50124741 19.054245 21.12146378 35.85186768 24.12979889 40.5524292 3.0083313-4.70056152 13.62853241-21.4981842 24.12978363-40.5524292 7.23953247-13.13595581 13.0058136-24.75621795 17.13863373-34.53797912 5.13027954-12.14255524 7.73155975-21.42447662 7.73155975-27.58787537 0-6.61540222-1.29541778-13.03237915-3.85025787-19.0727005-2.46788025-5.83475494-6.00109863-11.07512665-10.50150299-15.57552337-4.50039673-4.50039673-9.74075318-8.03361512-15.57551575-10.50149537-6.04032135-2.55484008-12.45730209-3.8502655-19.0727005-3.8502655m0-1c27.61421967 0 49.99997711 22.38575745 49.99997711 49.99998474 0 27.61421967-49.99997711 104.52667237-49.99997711 104.52667237s-50-76.9124527-50-104.52667237c0-27.61422729 22.38575745-49.99998474 50-49.99998474z" fill="#707070"/></g></g><path d="m65.331 3a59.446 59.446 0 0 1 59.331 59.331c0 9.271-3.682 19.8-8.807 31.416a368.138 368.138 0 0 1 -18.464 35.537c-9.506 16.416-19.011 30.934-23.832 38.135a10.085 10.085 0 0 1 -8.228 5c-4.2.262-7.71-4.23-8.236-5.013-4.167-6.206-14-21.148-23.825-38.125a374.406 374.406 0 0 1 -18.489-35.534c-5.099-11.613-8.781-22.147-8.781-31.416a59.446 59.446 0 0 1 59.331-59.331zm0 13.185a46.038 46.038 0 0 0 -46.146 46.146c0 5.279 2.91 15.219 7.7 26.112a357.43 357.43 0 0 0 17.768 34.25c10.326 17.794 16.816 27.064 20.678 32.755 3.862-5.691 10.352-14.961 20.678-32.755a363.9 363.9 0 0 0 17.791-34.251c4.764-10.892 7.674-20.832 7.674-26.112a46.038 46.038 0 0 0 -46.143-46.145z" fill="#fc801a" transform="translate(155.338 8.398)"/><path d="m4.569 24.12 20.856-21.32a2.705 2.705 0 0 1 3.841 0l20.856 21.347a5.41 5.41 0 0 1 1.569 3.868v22.669a5.41 5.41 0 0 1 -5.113 5.41h-38.466a5.41 5.41 0 0 1 -5.112-5.41v-22.668a5.6 5.6 0 0 1 1.569-3.9zm28.187 32.185v-21.851h-10.821v21.851z" fill="#fc801a" transform="translate(192.379 39.809)"/><path d="m3099.689 1192.691h-10.82" fill="none" stroke="#fff" transform="translate(-2885.559 -924.381)"/></g></svg>