<svg height="167.241" viewBox="0 0 217.083 167.241" width="217.083" xmlns="http://www.w3.org/2000/svg"><path d="m351.217 90.47a52.869 52.869 0 0 0 -8.609-13.72l-119.467-1.178 98.359-13.814a55.876 55.876 0 0 0 -19.957-3.958 55.935 55.935 0 0 0 -66.817-2.261 55.7 55.7 0 0 0 -25.572-6.165c-26.545 0-48.662 18.385-53.623 42.764z" fill="#fc801a" opacity=".1" transform="translate(-138.335 -45.556)"/><path d="m288.943 288.988a51.648 51.648 0 0 0 -3.722-19.3l-207.05 21.735a52 52 0 0 0 -4.844 12.251l64.121 9.557-65.588 6.969c1.973 27.6 25.632 49.392 54.534 49.392a55.333 55.333 0 0 0 37.564-14.528 55.552 55.552 0 0 0 87.3-15.566 53.9 53.9 0 0 0 35.942-37.145l-81.084-12.576h82.823c0-.263.004-.526.004-.789z" fill="#fc801a" opacity=".1" transform="translate(-71.86 -223.627)"/><ellipse cx="115.855" cy="164.17" fill="#797979" rx="67.701" ry="3.07"/><path d="m622.051 389.662s4.316 8.165 4.651 9.33a1.574 1.574 0 0 0 1.455 1.163s4.3 1.028 5.327 1.165 9.935.89 9.935.89 2.261.07 2.534-.752c.251-.752 4.618-4.7 7.146-1.256a2.514 2.514 0 0 1 .366 2.244c-.464 1.48-1.418 3.829-2.442 2.368-1.439-2.055-3.112-1.478-3.112-.382s-2.3.688-3.054.843c-.411.084-1.825.46-3.048.789a22.2 22.2 0 0 1 -4.341.721c-2.427.158-6.005.29-7.273-.189a19.742 19.742 0 0 0 -5.343-.746 1.757 1.757 0 0 1 -1.042-.374 16.254 16.254 0 0 1 -3.956-4.5c-1.782-3.083-5.446-9.466-5.2-11.316s7.397.002 7.397.002z" fill="#efb7b9" transform="translate(-513.092 -318.29)"/><path d="m622.051 389.662s4.316 8.165 4.651 9.33a1.574 1.574 0 0 0 1.455 1.163s4.3 1.028 5.327 1.165 9.935.89 9.935.89 2.261.07 2.534-.752c.251-.752 4.618-4.7 7.146-1.256a2.514 2.514 0 0 1 .366 2.244c-.464 1.48-1.418 3.829-2.442 2.368-1.439-2.055-3.112-1.478-3.112-.382s-2.3.688-3.054.843c-.411.084-1.825.46-3.048.789a22.2 22.2 0 0 1 -4.341.721c-2.427.158-6.005.29-7.273-.189a19.742 19.742 0 0 0 -5.343-.746 1.757 1.757 0 0 1 -1.042-.374 16.254 16.254 0 0 1 -3.956-4.5c-1.782-3.083-5.446-9.466-5.2-11.316s7.397.002 7.397.002z" opacity=".05" transform="translate(-513.092 -318.29)"/><path d="m833.46 549.993c-1.954 2.125-3.393 2.961-3.325.719.206-6.782-11.714-37.445-11.714-37.445l3.525-.267a91.3 91.3 0 0 1 11.514 36.993z" fill="none" transform="translate(-674.99 -416.933)"/><path d="m842.32 699.4a16.955 16.955 0 0 1 -33.847 1.439c-.025-.275-.043-.551-.051-.822v-.017q-.012-.306-.012-.617a16.955 16.955 0 1 1 33.91 0z" fill="#65617d" transform="translate(-671.037 -553.542)"/><circle cx="154.328" cy="145.847" fill="#dce0ed" r="9.248"/><circle cx="154.328" cy="145.847" fill="#65617d" r="5.549"/><circle cx="86.193" cy="147.847" fill="#65617d" r="16.955"/><circle cx="86.193" cy="147.847" fill="#dce0ed" r="9.248"/><circle cx="86.194" cy="147.847" fill="#65617d" r="5.549"/><path d="m516.418 560.143-40.828.822v-6.018c.366-4.844 5.343-6.544 9.865-7.076a28.316 28.316 0 0 1 10.549.791c8.663 2.294 14.181 2.737 16.9 2.781a2.592 2.592 0 0 1 2.507 2.109c.129.688.257 1.439.376 2.178.09.58.177 1.151.255 1.683.226 1.534.376 2.73.376 2.73z" fill="#65617d" transform="translate(-402.617 -444.494)"/><path d="m492.074 565.859h-84.815a3.34 3.34 0 0 1 -3.093-2 2.32 2.32 0 0 1 1.208-3.073 9.608 9.608 0 0 0 4.176-5.109 50.857 50.857 0 0 0 2.135-13.383c.358-6.755 2.8-10.095 5.446-11.714a10.783 10.783 0 0 1 7.156-1.305l34.389.275a6.609 6.609 0 0 1 1.679 1.1c3.064 2.853-1.4 6.576-1.4 6.576-9.591 10.138-2.331 20.414-2.331 20.414h17.6a16.193 16.193 0 0 0 9.217-2.822 9.285 9.285 0 0 0 3.654-4.195c.271-.736.547-1.469.876-2.181 4.616-10.011-.952-26.3-3.354-32.385-.6-1.515-1-2.4-1-2.4l5.518-.411 3.494-.265h.035a91.374 91.374 0 0 1 11.509 36.993c.09.952.164 1.874.224 2.76a12.331 12.331 0 0 1 -12.321 13.126z" fill="#00121d" transform="translate(-345.701 -416.917)"/><path d="m516.044 588.493h-40.454v-1.683h40.2c.089.569.176 1.141.254 1.683z" opacity=".1" transform="translate(-402.617 -475.574)"/><path d="m511.324 593.145h-42.9a.822.822 0 0 1 -.325-.066 10.783 10.783 0 0 1 7.156-1.305l34.389.275a6.611 6.611 0 0 1 1.68 1.096z" opacity=".1" transform="translate(-396.666 -479.403)"/><rect fill="#fff" height="1.683" rx=".842" width="59.949" x="55.907" y="111.637"/><path d="m833.46 549.993c-1.954 2.125-3.393 2.961-3.325.719.206-6.782-11.714-37.445-11.714-37.445l3.525-.267a91.3 91.3 0 0 1 11.514 36.993z" opacity=".1" transform="translate(-674.99 -416.933)"/><ellipse cx="2.462" cy="6.198" opacity=".1" rx="2.462" ry="6.198" transform="matrix(.91118768 -.41199151 .41199151 .91118768 147.774 104.865)"/><ellipse cx="2.462" cy="6.198" fill="#dce0ed" rx="2.462" ry="6.198" transform="matrix(.91118768 -.41199151 .41199151 .91118768 147.98 104.659)"/><path d="m800.6 513v3.22h-6.27a10.8 10.8 0 0 1 -1.743-.14c-.6-1.515-1-2.4-1-2.4l5.518-.411z" opacity=".1" transform="translate(-653.674 -416.933)"/><path d="m772.656 452.2h-6.268c-5.506 0-9.968-4.11-9.968-9.2v-.853c0-5.08 4.462-9.2 9.968-9.2l6.268.569z" fill="#00121d" transform="translate(-625.732 -353.335)"/><path d="m759.151 458.656s3.751 2 1.593 5.395c0 0-2.647 4.34-6.809 3.929l-1.515-9.324s4.98-.463 6.731 0z" fill="#595959" opacity=".3" transform="translate(-622.554 -373.594)"/><path d="m762.56 390.17h1.208a3.827 3.827 0 0 1 3.832 3.83v11.032a3.827 3.827 0 0 1 -3.827 3.827h-1.213z" opacity=".1" transform="translate(-615.842 -309.985)"/><path d="m763.56 390.17h1.208a3.827 3.827 0 0 1 3.832 3.83v11.032a3.827 3.827 0 0 1 -3.827 3.827h-1.213z" fill="#dce0ed" transform="translate(-616.636 -309.985)"/><path d="m618.88 516.236s.968.353 2.261.847a51.181 51.181 0 0 1 5.96 2.579c1.007.633 4.762 1.673 7.573 2.4a24.661 24.661 0 0 0 6.383.787c2.187-.021 4.836-.041 5.567-.041a2.3 2.3 0 0 1 .382.029c.769.127.738.643.719.767v.027c-4.521 2.74-10 15-10.344 17.058-.257 1.541-2.516 5.814-3.629 7.857-.374.684-.617 1.118-.617 1.118l1.371 1.574 3.973 1.782 3.767 1.644a26.542 26.542 0 0 0 4.043 0c.068-.206.068-2.328.068-2.328a11.226 11.226 0 0 1 -1.373-1.044 22.705 22.705 0 0 1 -2.532-2.587c-2.191-2.6 2.193-7.6 2.193-7.6l8.426-10.96s.684-1.233 3.973-6.166 0-7.6 0-7.6l-5.787-2.4c-10.037-3.757-22.144-6.768-22.144-6.768l-.173-.023-2.567-.321z" fill="#efb7b9" transform="translate(-516.459 -412.055)"/><path d="m695.011 715.208s.719.849.181.925a8.955 8.955 0 0 1 -1.952-.23l-8.967-4.727s-.976-.695-1.206.668-.386 1.233-.386 1.233-1.182 2.542 0 3.068 8.28 2.608 8.28 2.608 10.3 2.339 11.279-.36-1.747-2.234-1.747-2.234-3.391-.822-4.548-2.466c-.009 0-1.678.463-.934 1.515z" fill="#444053" transform="translate(-566.729 -574.24)"/><path d="m657.036 516.373-5.787-2.4c-10.038-3.759-22.149-6.773-22.149-6.773l-.173-.023-2.567-.321-7.485 9.376s.968.353 2.261.847a51.19 51.19 0 0 1 5.96 2.579c1.007.633 4.762 1.673 7.573 2.4a24.663 24.663 0 0 0 6.383.787c2.187-.021 4.836-.041 5.567-.041a2.3 2.3 0 0 1 .382.029c.769.127.738.643.719.767v.027c-4.521 2.74-10 15-10.344 17.058-.257 1.541-2.516 5.814-3.629 7.857l-.15.275c-.3-.049-.67.057-.8.834-.232 1.361-.386 1.233-.386 1.233s-1.182 2.542 0 3.068 8.274 2.608 8.274 2.608 10.3 2.339 11.279-.36-1.747-2.234-1.747-2.234-3.391-.822-4.548-2.466a2.273 2.273 0 0 0 -.3.111c-.121-.1-.251-.205-.388-.325a22.71 22.71 0 0 1 -2.532-2.587c-2.191-2.6 2.193-7.6 2.193-7.6l8.426-10.96s.684-1.233 3.973-6.165-.005-7.601-.005-7.601z" opacity=".05" transform="translate(-516.459 -412.055)"/><path d="m585.3 286.9.312.395.175.22 1.089 1.371s2.6.834 4.879 1.375c2.374.561 4.4.806 2.789-.536-1-.832-1.065-2.226-.7-3.72a15.391 15.391 0 0 1 1.307-3.309q.121-.234.24-.456a27.412 27.412 0 0 1 1.693-2.735 48.63 48.63 0 0 0 -4.54-2.789c-1.883-.974-3.428-1.4-2.448.528a4.511 4.511 0 0 1 -.164 3.944c-.045.1-.095.206-.146.314a14.135 14.135 0 0 1 -1.94 2.855 22.527 22.527 0 0 1 -2.546 2.543z" fill="#efb7b9" transform="translate(-489.78 -228.552)"/><path d="m569.1 436.24 1.393 1.272 1.346 5.179h-2.246l-2.481-3.227z" fill="#444053" transform="translate(-460.56 -346.587)"/><path d="m567.11 439.465 1.5 1.95.98 1.276h2.246l-.23-.886-.98-3.773-.136-.52-1.39-1.272-1.9 3.087z" opacity=".1" transform="translate(-460.56 -346.587)"/><path d="m567.11 439.465 1.5 1.95.98 1.276h2.246l-.23-.886-.98-3.773-.136-.52-1.39-1.272-1.9 3.087z" opacity=".1" transform="translate(-460.56 -346.587)"/><path d="m602.64 520.888s.968.354 2.261.847a51.192 51.192 0 0 1 5.96 2.579c1.007.633 4.762 1.673 7.573 2.4a24.662 24.662 0 0 0 6.383.789c2.187-.021 4.836-.041 5.567-.041a2.31 2.31 0 0 1 .382.029c.769.127.738.643.719.767v.027c-4.521 2.74-10 15-10.344 17.058-.257 1.541-2.516 5.814-3.629 7.857-.374.684-.617 1.118-.617 1.118l1.371 1.574 3.971 1.78 3.767 1.644a26.541 26.541 0 0 0 4.042 0c.068-.206.068-2.328.068-2.328a11.22 11.22 0 0 1 -1.373-1.044 22.715 22.715 0 0 1 -2.532-2.587c-2.191-2.6 2.193-7.6 2.193-7.6l8.426-10.96s.684-1.233 3.973-6.165 0-7.6 0-7.6l-5.274-3.015c-8.221-5-19.8-7.877-19.8-7.877l-.173-.023-2.567-.321z" fill="#efb7b9" transform="translate(-503.557 -414.383)"/><path d="m672 722.122 1.371 1.574 3.973 1.782 3.767 1.644a26.541 26.541 0 0 0 4.042 0c.068-.206.068-2.329.068-2.329a11.214 11.214 0 0 1 -1.373-1.044c-.425.228-.908.656-.442 1.317 0 0 .719.847.181.925a8.825 8.825 0 0 1 -1.952-.23l-8.967-4.727-.051-.035z" opacity=".1" transform="translate(-558.662 -582.186)"/><path d="m678.771 726.513s.719.847.179.925a8.772 8.772 0 0 1 -1.952-.232l-8.965-4.727s-.976-.693-1.208.668-.384 1.233-.384 1.233-1.182 2.544 0 3.07 8.272 2.6 8.272 2.6 10.3 2.337 11.277-.36-1.747-2.236-1.747-2.236-3.391-.822-4.546-2.466c.003.012-1.672.47-.926 1.525z" fill="#444053" transform="translate(-553.827 -583.22)"/><path d="m605.3 280.653c1.188.822 3 2.123 4.548 2.123a7.584 7.584 0 0 0 1.192-.095 27.782 27.782 0 0 1 1.934-3.192s-9.043-6.3-6.988-2.261c.679 1.345.014 2.005-.686 3.425z" opacity=".1" transform="translate(-505.67 -228.542)"/><path d="m591.43 242.835a7.386 7.386 0 0 0 3.373 6.207 6.789 6.789 0 0 0 .723.411 7.4 7.4 0 1 0 -4.1-6.622z" fill="#efb7b9" transform="translate(-494.65 -196.41)"/><path d="m602.64 520.888s.968.354 2.261.847a10.894 10.894 0 0 1 1.991-1.531c.754-.275 3.22-1.714 3.153-2.125a3.6 3.6 0 0 1 1.985-2.261c.958-.275.411-1.712.411-1.712s1.85-.684 2.31-1.644 1.87-2.193 1.389-2.123a1.492 1.492 0 0 1 -.584-.228l-2.567-.321z" opacity=".1" transform="translate(-503.557 -414.383)"/><path d="m565.124 506.175s3.153 2.6 3.3 3.767 2.25 1.1 2.25 1.1a31.207 31.207 0 0 1 3.9-3.288c.752-.273 3.22-1.714 3.153-2.125a3.6 3.6 0 0 1 1.985-2.261c.958-.275.411-1.712.411-1.712s1.85-.684 2.31-1.644 1.87-2.193 1.389-2.123a3.483 3.483 0 0 1 -1.12-.532c-.676-.411-1.533-.968-2.232-1.439-.74-.5-1.3-.9-1.3-.9s-.323-.058-.875-.138c-2.982-.432-12.695-1.533-14.949 2.055a5.44 5.44 0 0 0 -.668 1.535c-1.011 3.821 2.446 7.705 2.446 7.705z" fill="#444053" transform="translate(-471.66 -402.136)"/><path d="m573.609 511.37s-3.218 1.817-4.419 1.817 4.419-1.817 4.419-1.817z" opacity=".1" transform="translate(-476.848 -415.638)"/><path d="m583.236 517.966s-4.793 1.611-4.793 2.877-.443-3.391 4.793-2.877z" opacity=".1" transform="translate(-484.325 -420.847)"/><path d="m657.368 482.81-.068.092a.205.205 0 0 0 .068-.092z" opacity=".1" transform="translate(-546.983 -392.948)"/><path d="m585.3 319.616.312.395.175.22 1.089 1.371s2.6.834 4.879 1.375c2.374.561 4.4.806 2.789-.536-1-.832-1.065-2.226-.7-3.72l-.072-.092s.072 1.385-.748 1.412c-1.106.035-1.12-.337-2.139-.767a6.877 6.877 0 0 1 -3.038-2.2 22.528 22.528 0 0 1 -2.546 2.546z" opacity=".1" transform="translate(-489.78 -261.27)"/><path d="m563.39 488.463a2.374 2.374 0 0 0 1.763.041c2.123-.686 5.481-2.339 7.055-1.615 1.262.58 6.344.563 8.221.076.467-.121.734-.271.693-.448a1.234 1.234 0 0 1 .072-.6 11.106 11.106 0 0 1 1.252-2.333l-.136-.52-1.393-1.272-1.9 3.083c-2.982-.432-12.695-1.533-14.949 2.055a5.443 5.443 0 0 0 -.678 1.533z" opacity=".1" transform="translate(-472.373 -392.137)"/><path d="m555.6 356.444a2.331 2.331 0 0 0 2.945 1.233c2.123-.684 5.481-2.339 7.055-1.615s9.113.518 8.907-.372 1.85-3.7 1.85-3.7-1.122-.206-1.817-3.87c-.1-.534-.2-1.143-.273-1.833a23.333 23.333 0 0 1 -.119-4.262c.277-3.966 1.667-5.586 1.667-5.586a4.611 4.611 0 0 0 .273-5.206c-.861-1.58-4.336-5.96-4.384-7.912-.043-1.772-1.737-3.831-1.737-3.831s.072 1.385-.748 1.412c-1.106.035-1.12-.337-2.139-.767-1.5-.633-3.038-1.749-3.138-2.495 0 0-6.281-.314-7.651 6.057s-.89 9.865-.684 10.619 1.985 10.481.547 14.592a14.161 14.161 0 0 0 -.554 7.536z" fill="#006caa" transform="translate(-465.967 -261.721)"/><path d="m591.139 415.192a16.116 16.116 0 0 0 4.451 4.865 30.843 30.843 0 0 1 3.6.24c-.1-.534-.206-1.143-.273-1.833a23.322 23.322 0 0 1 -.119-4.262 1.551 1.551 0 0 1 -.806-.995c-.343-1.165-3.4-6.714-3.4-6.714s-7.15-1.85-7.4 0 2.165 5.616 3.947 8.699z" opacity=".1" transform="translate(-491.268 -331.661)"/><path d="m589.353 389.662s4.316 8.165 4.651 9.33a1.574 1.574 0 0 0 1.455 1.163s4.3 1.028 5.327 1.165 9.941.89 9.941.89 2.261.07 2.534-.752c.251-.752 4.618-4.7 7.146-1.256a2.513 2.513 0 0 1 .366 2.244c-.464 1.48-1.418 3.829-2.442 2.368-1.439-2.055-3.112-1.478-3.112-.382s-2.3.688-3.054.843c-.411.084-1.825.46-3.048.789a22.2 22.2 0 0 1 -4.351.721c-2.427.158-6.005.29-7.273-.189a19.721 19.721 0 0 0 -5.343-.746 1.757 1.757 0 0 1 -1.042-.374 16.255 16.255 0 0 1 -3.954-4.5c-1.782-3.083-5.446-9.466-5.2-11.316s7.399.002 7.399.002z" fill="#efb7b9" transform="translate(-487.112 -318.29)"/><path d="m585.595 333.9a55.326 55.326 0 0 1 3.383 6.577c1.071 2.74 2.372 7.536 2.372 7.536l-6.441-.754-.547-.89s-4.6 2.877-4.051 4.11a10.773 10.773 0 0 1 -1.1-5.343c.138-3.494-.5-9.729 0-11.236s4.869-1.164 6.384 0z" fill="#006caa" opacity=".1" transform="translate(-484.793 -273.843)"/><path d="m566 437s2.723 3.751 3.545 3.853c-.006.009-3.5-.77-3.545-3.853z" opacity=".1" transform="translate(-474.447 -356.552)"/><path d="m566 463s5.138 5.189 6.782 5.241-6.782-5.241-6.782-5.241z" opacity=".1" transform="translate(-474.447 -377.209)"/><path d="m566 473.54s3.288 3.853 3.494 3.853-3.554-1.335-3.494-3.853z" opacity=".1" transform="translate(-474.444 -385.583)"/><path d="m580.33 255.806a4.559 4.559 0 0 0 1.508-.506c.177-.092.351-.2.522-.3a12.344 12.344 0 0 0 1.874-1.541 7.979 7.979 0 0 0 2.279-3.181 5.737 5.737 0 0 0 .193-.888c.234-1.58.037-3.325 1.167-4.4a2.688 2.688 0 0 1 .721-.487c1.6-.762 3.927-.269 5.124-1.644.76-.871.742-2.082 1.326-3.029a6.363 6.363 0 0 1 1.139-1.145 7.4 7.4 0 1 0 -10.2 10.276c-.045.1-.095.206-.146.314a19.6 19.6 0 0 1 -4.486 5.4l.312.395a2.012 2.012 0 0 0 -1.333.736z" opacity=".1" transform="translate(-485.831 -196.34)"/><path d="m447.656 218.489c-1.391 1.595-4.316.666-5.847 2.127-1.344 1.28-.81 3.514-1.358 5.288a7.993 7.993 0 0 1 -2.279 3.181c-1.377 1.34-3.138 2.7-5.021 2.316-1.116-.228-2.209-1.063-3.288-.678a3.845 3.845 0 0 0 -1.321 1.067 9.106 9.106 0 0 1 -5.05 2.612 2.16 2.16 0 0 1 -1.145-.053c-.575-.234-.886-.863-1.41-1.2-1.028-.658-2.347.016-3.414.6a23.887 23.887 0 0 1 -19.623 1.412l1.663-.822c-.353-.721-1.309-.88-1.917-1.408-1.254-1.087-.516-3.262.81-4.258s3.042-1.344 4.414-2.275a1.145 1.145 0 0 0 .59-.775 1.233 1.233 0 0 0 -.224-.686c-.732-1.289-1.541-2.672-1.377-4.145.251-2.261 2.719-3.65 4.986-3.808s4.511.524 6.782.563a4.446 4.446 0 0 0 2.388-.491 7.226 7.226 0 0 0 2.078-2.7 11.03 11.03 0 0 1 4.419-4.073c2.055-1.038 4.382-1.4 6.519-2.261 2.183-.875 4.168-2.261 6.451-2.818 3.315-.822 6.866.253 9.729 2.111 1.379.894 5.783 3.763 5.754 5.6-.023 1.089-1.439 1.679-1.975 2.534-.59.958-.573 2.169-1.334 3.04z" transform="translate(-340.18 -172.175)"/><g opacity=".1" transform="translate(56.823 39.926)"><path d="m421.792 287.846a1.251 1.251 0 0 1 .224.686.7.7 0 0 1 -.072.249 8.666 8.666 0 0 1 -1.334-3.381 13.07 13.07 0 0 0 1.182 2.446z" transform="translate(-415.76 -276.035)"/><path d="m397.452 334c.606.528 1.562.686 1.917 1.408l-.588.292a6.613 6.613 0 0 1 -1.124-.672 1.934 1.934 0 0 1 -.641-1.6 1.765 1.765 0 0 0 .436.572z" transform="translate(-397.01 -314.194)"/><path d="m420.817 260.456c1.067-.588 2.388-1.262 3.414-.6.522.335.834.964 1.41 1.2a2.152 2.152 0 0 0 1.143.053 9.112 9.112 0 0 0 5.052-2.612 3.785 3.785 0 0 1 1.321-1.067c1.073-.384 2.166.45 3.288.678 1.883.384 3.642-.976 5.021-2.316a7.973 7.973 0 0 0 2.277-3.181c.551-1.774.016-4.008 1.361-5.288 1.535-1.461 4.454-.532 5.847-2.127.758-.871.742-2.082 1.326-3.029.493-.8 1.772-1.367 1.952-2.331a1.788 1.788 0 0 1 .228.822c-.023 1.089-1.439 1.679-1.975 2.534-.584.947-.567 2.158-1.326 3.029-1.393 1.595-4.316.666-5.847 2.127-1.344 1.28-.81 3.514-1.361 5.288a7.988 7.988 0 0 1 -2.277 3.181c-1.379 1.34-3.138 2.7-5.021 2.316-1.118-.228-2.211-1.063-3.288-.678a3.807 3.807 0 0 0 -1.321 1.067 9.113 9.113 0 0 1 -5.052 2.612 2.152 2.152 0 0 1 -1.143-.053c-.575-.234-.888-.863-1.41-1.2-1.028-.658-2.347.016-3.414.6a23.887 23.887 0 0 1 -19.623 1.412l1.149-.569a23.932 23.932 0 0 0 18.269-1.868z" transform="translate(-400.498 -239.83)"/></g><path d="m740.219 595.043 1.728-.836v-.327a9.613 9.613 0 0 0 -2.448.388c.77.132.739.651.72.775z" opacity=".1" transform="translate(-612.289 -481.166)"/><ellipse cx="129.433" cy="89.912" fill="#595959" rx="4.164" ry="5.066"/><g fill="#fc801a"><path d="m372.508 405.42-6.694 6.6-22-.384 6.05-6.217z" transform="translate(-283.152 -322.101)"/><path d="m457.574 428v-22.58l-6.694 6.6v22.1z" transform="translate(-368.217 -322.101)"/><path d="m343.81 435.67v22.481h22v-22.1z" transform="translate(-283.152 -346.134)"/></g><path d="m462.478 428.721-.3-8.891-1.72 1.7.3 8.911z" fill="#fff" transform="translate(-375.828 -333.55)"/><path d="m357.062 416.49 21.146.286.711.4-1.72 1.7-.594-.349-20.944-.594z" fill="#fff" transform="translate(-292.566 -330.896)"/><path d="m192.925 146.749c.011 3.019-4.667 3.538-6.725 2.1-1.054-.7-.334-1.687.191-2.474a.382.382 0 0 1 .45-.146l.527.195.137.05a.409.409 0 0 1 .2.1.268.268 0 0 1 .038.168 1.489 1.489 0 0 0 .031.247c.012.065.026.129.039.194a1.131 1.131 0 0 0 .04.163 1.33 1.33 0 0 0 .289.464 1.562 1.562 0 0 0 .928.435 2.2 2.2 0 0 0 1.048-.123 1.389 1.389 0 0 0 .776-.625 1.036 1.036 0 0 0 -.105-1.029 2.345 2.345 0 0 0 -.623-.644 1.653 1.653 0 0 0 -1.1-.373 1.827 1.827 0 0 0 -.874.359.694.694 0 0 1 -.155.091.321.321 0 0 1 -.257-.037c-.061-.031-.121-.062-.182-.091a5.058 5.058 0 0 1 -.552-.3 3.039 3.039 0 0 1 -.566-.466 2.6 2.6 0 0 1 -.635-1.14 2.575 2.575 0 0 1 0-1.247 2.809 2.809 0 0 1 .6-1.15 3.252 3.252 0 0 1 1.164-.849 4.344 4.344 0 0 1 1.695-.343h.108c1.449.008 3.747.79 3.157 1.886l-.832 1.31a.174.174 0 0 1 -.235.058 1.058 1.058 0 0 1 -.265-.227c-.342-.452-.53-.97-1.143-1.118l-1.366-.387a.162.162 0 0 0 -.2.155c-.091.171 1.376.676 1.447.749.182.075.082.369-.11.281-.325-.12-1.059-.381-1.42-.511a.161.161 0 0 0 -.2.086.178.178 0 0 0 .047.261 15.9 15.9 0 0 1 1.41.788.157.157 0 0 1 -.215.195l-1.351-.6a.161.161 0 0 0 -.151.284l1.2.754a1.4 1.4 0 0 0 1.035.182 1.553 1.553 0 0 1 1.4.2 2.367 2.367 0 0 1 1.305 2.125z" fill="#fff" transform="translate(-117.736 -43.842)"/></svg>