<svg height="399.558" viewBox="0 0 399.558 399.558" width="399.558" xmlns="http://www.w3.org/2000/svg"><ellipse cx="199.779" cy="199.779" fill="#fff" rx="199.779" ry="199.779"/><path d="m370.315 304.662c.272 76.719-118.609 89.9-170.9 53.245-26.79-17.791-8.5-42.874 4.844-62.864a9.717 9.717 0 0 1 11.448-3.721l13.4 4.954 3.473 1.279c1.736.637 3.779 1.129 4.977 2.656.949 1.2.938 2.8.961 4.26a37.852 37.852 0 0 0 .781 6.285c.3 1.644.648 3.282 1 4.919a28.772 28.772 0 0 0 1.013 4.138 33.793 33.793 0 0 0 7.356 11.783c6.222 6.418 14.828 9.92 23.59 11.054a56 56 0 0 0 26.622-3.114c8.039-3.01 15.707-8.056 19.73-15.875 4.416-8.583 2.257-18.265-2.674-26.148a59.6 59.6 0 0 0 -15.836-16.359c-8.039-5.788-17.773-10.487-27.913-9.468-8.259.828-15.522 4.375-22.218 9.115a17.633 17.633 0 0 1 -3.941 2.315c-2.228.816-4.485.1-6.528-.932-1.545-.787-3.085-1.58-4.63-2.315a128.554 128.554 0 0 1 -14.029-7.564 77.246 77.246 0 0 1 -14.382-11.853 66.134 66.134 0 0 1 -16.147-28.972 65.439 65.439 0 0 1 -.035-31.687 71.377 71.377 0 0 1 15.2-29.221 82.651 82.651 0 0 1 29.568-21.564c13.531-5.944 28.359-8.554 43.065-8.728h2.743c36.826.208 95.222 20.065 80.221 47.921l-21.148 33.29a4.427 4.427 0 0 1 -5.967 1.464 26.883 26.883 0 0 1 -6.731-5.759c-8.681-11.482-13.468-24.661-29.053-28.411l-34.725-9.839a4.109 4.109 0 0 0 -5.209 3.93c-2.315 4.335 34.956 17.177 36.768 19.023 4.63 1.916 2.083 9.382-2.784 7.13-8.247-3.056-26.912-9.671-36.091-12.976a4.1 4.1 0 0 0 -5.116 2.193c-1.354 2.217-1.36 5.3 1.2 6.621 10.875 6.366 34.2 17.276 35.825 20.013 1.441 3.247-2.315 6.453-5.458 4.948l-34.345-15.277c-4.451-2.1-8.1 4.63-3.837 7.205l30.581 19.162a35.495 35.495 0 0 0 26.31 4.63c14.874-3.8 22.508-2.541 35.547 5.035a60.154 60.154 0 0 1 33.474 54.079z" fill="#f6881f" transform="translate(-78.209 -59.093)"/></svg>