<svg height="77.062" viewBox="0 0 77.05 77.062" width="77.05" xmlns="http://www.w3.org/2000/svg"><g fill="#595959" transform="translate(-8 -3.987)"><path d="m79.278 63.5-17.424 10.325-6.637-4.194h8.344a4.816 4.816 0 1 0 0-9.631h-14.333a13.3 13.3 0 0 0 -4.824.876l-11.146 5.06v-1.12a1.313 1.313 0 0 0 -1.313-1.316h-9.632a1.313 1.313 0 0 0 -1.313 1.316v21.884a1.313 1.313 0 0 0 1.313 1.313h9.631a1.313 1.313 0 0 0 1.314-1.313v-1.308h27.222a8.16 8.16 0 0 0 4.8-1.55l18.612-13.335a4.229 4.229 0 0 0 -4.614-7zm-48.647 21.892h-7v-19.263h7zm51.738-16.978-18.623 13.3a5.56 5.56 0 0 1 -3.266 1.051h-27.222v-13.948l12.153-5.49a10.62 10.62 0 0 1 3.817-.7h14.334a2.189 2.189 0 0 1 0 4.378h-12.88a1.313 1.313 0 0 0 -.7 2.425l11.146 7a1.313 1.313 0 0 0 1.375 0l18.123-10.756a1.6 1.6 0 0 1 1.751 2.679z" transform="translate(-1.618 -6.97)"/><path d="m83.737 46.026h-3.065a33.753 33.753 0 0 0 -29.463-32.554 5.691 5.691 0 1 0 -8.484 0 33.745 33.745 0 0 0 -29.472 32.554h-3.94a1.313 1.313 0 0 0 0 2.627h74.424a1.313 1.313 0 0 0 0-2.627zm-36.774-39.401a3.065 3.065 0 1 1 -3.063 3.065 3.065 3.065 0 0 1 3.064-3.065zm0 9.194a31.109 31.109 0 0 1 31.083 30.207h-62.166a31.109 31.109 0 0 1 31.083-30.207z"/><path d="m42.078 24.6a25.794 25.794 0 0 0 -16.461 14.161 1.313 1.313 0 1 0 2.39 1.068 23.176 23.176 0 0 1 14.793-12.696 1.315 1.315 0 0 0 -.718-2.53z" transform="translate(-2.172 -2.559)"/></g></svg>